<svg aria-hidden="true" style="position: absolute; width: 0; height: 0; overflow: hidden;" version="1.1" xmlns="http://www.w3.org/2000/svg" xmlns:xlink="http://www.w3.org/1999/xlink">
<defs>
<symbol id="icon-behance" viewBox="0 0 27 20">
<path d="M10.763 9.12c0 0 2.52-0.196 2.52-3.332 0-3.127-2.061-4.661-4.677-4.661h-8.606v17.512h8.605c0 0 5.257 0.171 5.257-5.173 0 0 0.226-4.346-3.099-4.346zM14.514 12.308c0-0.034 0.008-6.724 6.351-6.724 6.698 0 5.756 7.601 5.756 7.601h-8.565c0 3.247 2.906 3.042 2.906 3.042 2.753 0 2.657-1.883 2.657-1.883h2.906c0 5.002-5.659 4.661-5.659 4.661-6.786 0-6.351-6.698-6.351-6.698zM20.93 8.149c-2.552 0-2.906 2.693-2.906 2.693h5.426c0 0 0.040-2.693-2.519-2.693zM8.605 4.237h-4.814v3.911h4.516c0.781 0 1.465-0.264 1.465-2.088s-1.167-1.823-1.167-1.823zM8.364 15.529h-4.572v-4.687h4.814c0 0 1.747-0.017 1.739 2.412 0 2.046-1.296 2.259-1.98 2.276zM17.307 4.314v-2.156h6.827v2.156h-6.827z"></path>
</symbol>
<symbol id="icon-dribbble" viewBox="0 0 19 20">
<path d="M9.524 0.423c-5.251 0-9.524 4.316-9.524 9.62s4.272 9.62 9.524 9.62c5.252 0 9.524-4.315 9.524-9.62s-4.273-9.62-9.524-9.62zM15.79 4.964c1.086 1.362 1.747 3.082 1.777 4.955-0.361-0.075-1.892-0.364-3.722-0.364-0.59 0-1.212 0.030-1.834 0.108-0.053-0.129-0.105-0.258-0.16-0.388-0.162-0.384-0.336-0.766-0.516-1.141 2.816-1.173 4.174-2.802 4.455-3.17zM14.825 3.948c-1.417-1.256-3.272-2.018-5.301-2.018-0.623 0-1.231 0.073-1.814 0.209 0.327 0.447 1.703 2.371 2.959 4.694 2.715-1.037 3.931-2.575 4.156-2.885zM6.067 2.718c0.277 0.386 1.655 2.331 2.944 4.636-3.459 0.92-6.531 0.98-7.273 0.98h-0.079c0.533-2.483 2.191-4.546 4.407-5.615zM1.481 9.856c-0.002 0.067-0.003 0.134-0.003 0.201 0 2.064 0.766 3.949 2.026 5.385 0.34-0.568 2.55-4.046 6.572-5.36 0.088-0.029 0.177-0.055 0.268-0.082-0.192-0.435-0.398-0.87-0.615-1.299-3.572 1.072-7.038 1.155-8.036 1.155-0.092 0-0.163 0-0.211-0zM9.524 18.182c-1.845 0-3.548-0.632-4.907-1.692 0.23-0.456 1.898-3.494 6.305-5.045 0.003-0.001 0.006-0.002 0.009-0.003 1.105 2.91 1.573 5.352 1.701 6.109-0.956 0.407-2.007 0.631-3.108 0.631zM12.539 11.044c1.001 2.792 1.434 5.080 1.542 5.706 1.762-1.228 3.017-3.146 3.38-5.363-0.306-0.094-1.621-0.467-3.303-0.467-0.512 0-1.058 0.035-1.619 0.123z"></path>
</symbol>
<symbol id="icon-fb" viewBox="0 0 11 20">
<path d="M10.586 0.004l-2.638-0.004c-2.964 0-4.88 1.932-4.88 4.922v2.269h-2.653c-0.229 0-0.415 0.183-0.415 0.408v3.288c0 0.225 0.186 0.408 0.415 0.408h2.653v8.297c0 0.225 0.186 0.408 0.415 0.408h3.461c0.229 0 0.415-0.183 0.415-0.408v-8.297h3.102c0.229 0 0.415-0.183 0.415-0.408l0.001-3.288c0-0.108-0.044-0.212-0.122-0.288s-0.183-0.12-0.294-0.12h-3.103v-1.924c0-0.925 0.224-1.394 1.449-1.394l1.777-0.001c0.229 0 0.415-0.183 0.415-0.408v-3.053c0-0.225-0.185-0.407-0.414-0.408z"></path>
</symbol>
<symbol id="icon-google" viewBox="0 0 29 20">
<path d="M0.005 9.76c-0.173-4.634 3.822-8.916 8.387-8.971 2.327-0.202 4.59 0.716 6.351 2.214-0.722 0.807-1.457 1.605-2.242 2.351-1.55-0.957-3.417-1.686-5.228-1.038-2.922 0.845-4.692 4.351-3.61 7.255 0.896 3.033 4.527 4.698 7.373 3.424 1.474-0.536 2.445-1.918 2.872-3.402-1.689-0.034-3.378-0.013-5.067-0.060-0.004-1.021-0.008-2.038-0.004-3.059 2.817-0.004 5.637-0.013 8.458 0.013 0.173 2.502-0.19 5.179-1.791 7.187-2.192 2.866-6.241 3.707-9.535 2.583-3.496-1.167-6.039-4.745-5.962-8.495z"></path>
<path d="M24.014 4.909c0.88 0 1.76 0 2.644 0 0.005 0.917 0.013 1.839 0.018 2.756 0.884 0.009 1.773 0.014 2.658 0.018 0 0.917 0 1.83 0 2.747-0.884 0.005-1.773 0.009-2.658 0.014-0.009 0.922-0.013 1.839-0.018 2.761-0.884-0.005-1.769 0-2.649 0-0.008-0.922-0.008-1.839-0.018-2.756-0.884-0.010-1.773-0.014-2.658-0.019 0-0.917 0-1.83 0-2.747 0.885-0.005 1.769-0.009 2.658-0.018 0.004-0.917 0.013-1.838 0.023-2.756z"></path>
</symbol>
<symbol id="icon-insta" viewBox="0 0 19 20">
<path d="M5.952 0.144h7.143c3.287 0 5.952 2.692 5.952 6.012v7.215c0 3.32-2.665 6.012-5.952 6.012h-7.143c-3.287 0-5.952-2.692-5.952-6.012v-7.215c0-3.32 2.665-6.012 5.952-6.012zM13.095 17.581c2.298 0 4.167-1.888 4.167-4.209v-7.215c0-2.321-1.869-4.209-4.167-4.209h-7.143c-2.298 0-4.167 1.888-4.167 4.209v7.215c0 2.321 1.869 4.209 4.167 4.209h7.143z"></path>
<path d="M4.762 9.764c0-2.656 2.132-4.81 4.762-4.81s4.762 2.154 4.762 4.81c0 2.656-2.132 4.81-4.762 4.81s-4.762-2.154-4.762-4.81zM6.548 9.764c0 1.657 1.336 3.006 2.976 3.006s2.976-1.349 2.976-3.006c0-1.658-1.336-3.006-2.976-3.006s-2.976 1.348-2.976 3.006z"></path>
<path d="M14.286 4.954c0.526 0 0.952-0.431 0.952-0.962s-0.426-0.962-0.952-0.962c-0.526 0-0.952 0.431-0.952 0.962s0.426 0.962 0.952 0.962z"></path>
</symbol>
<symbol id="icon-pinterest" viewBox="0 0 14 20">
<path d="M12.433 2.683c-1.251-1.271-2.983-1.972-4.875-1.972-2.891 0-4.67 1.255-5.652 2.307-1.211 1.297-1.905 3.019-1.905 4.725 0 2.142 0.846 3.786 2.263 4.397 0.095 0.041 0.191 0.062 0.285 0.062 0.299 0 0.536-0.207 0.618-0.539 0.048-0.191 0.159-0.661 0.207-0.865 0.103-0.403 0.020-0.597-0.205-0.878-0.41-0.513-0.601-1.12-0.601-1.911 0-2.347 1.651-4.841 4.71-4.841 2.428 0 3.936 1.461 3.936 3.812 0 1.484-0.302 2.858-0.85 3.869-0.381 0.703-1.051 1.541-2.080 1.541-0.445 0-0.844-0.193-1.097-0.531-0.238-0.319-0.317-0.731-0.221-1.16 0.108-0.485 0.256-0.991 0.399-1.48 0.26-0.893 0.507-1.737 0.507-2.41 0-1.151-0.669-1.925-1.663-1.925-1.264 0-2.255 1.359-2.255 3.095 0 0.851 0.214 1.488 0.31 1.732-0.159 0.714-1.106 4.961-1.285 5.762-0.104 0.467-0.729 4.16 0.306 4.454 1.163 0.331 2.203-3.266 2.309-3.672 0.086-0.33 0.386-1.58 0.57-2.348 0.561 0.573 1.466 0.96 2.345 0.96 1.658 0 3.15-0.79 4.2-2.224 1.018-1.391 1.579-3.33 1.579-5.459 0-1.665-0.675-3.306-1.853-4.502z"></path>
</symbol>
<symbol id="icon-twitter" viewBox="0 0 22 20">
<path d="M22.222 2.912c-0.817 0.374-1.697 0.628-2.619 0.741 0.942-0.583 1.664-1.505 2.005-2.605-0.881 0.54-1.857 0.931-2.895 1.143-0.832-0.915-2.017-1.487-3.329-1.487-2.517 0-4.559 2.109-4.559 4.71 0 0.369 0.040 0.728 0.119 1.073-3.789-0.196-7.149-2.071-9.397-4.921-0.392 0.695-0.617 1.505-0.617 2.368 0 1.634 0.805 3.076 2.028 3.92-0.747-0.024-1.45-0.236-2.065-0.59-0 0.020-0 0.040-0 0.060 0 2.282 1.572 4.185 3.657 4.618-0.382 0.108-0.786 0.165-1.201 0.165-0.294 0-0.58-0.029-0.858-0.084 0.58 1.871 2.263 3.232 4.259 3.271-1.561 1.263-3.526 2.016-5.663 2.016-0.367 0-0.731-0.022-1.087-0.066 2.017 1.337 4.414 2.116 6.988 2.116 8.386 0 12.972-7.176 12.972-13.401 0-0.204-0.004-0.407-0.013-0.609 0.892-0.664 1.664-1.493 2.275-2.438z"></path>
</symbol>
<symbol id="icon-vimeo" viewBox="0 0 21 20">
<path d="M0 6.020c1.853-1.499 4.486-4.792 6.541-4.792 2.052 0 2.556 2.458 2.836 4.687 0.284 2.229 1.090 7.105 2.174 7.105 1.087 0 3.563-4.314 3.421-5.98-0.139-1.666-1.932-1.417-2.917-0.938 0.906-3.333 2.999-5.105 5.675-5.105 2.677 0 3.322 1.917 3.322 4.272 0 3.584-7.164 14.564-11.492 14.564-2.677 0-3.341-4.001-3.883-5.981-0.544-1.978-1.611-7.168-2.859-7.501-0.484-0.082-1.851 1.020-1.851 1.020l-0.967-1.351z"></path>
</symbol>
<symbol id="icon-youtube" viewBox="0 0 16 20">
<path d="M5.049 7.665l0.001-4.043 1.382-3.464h-1.28l-0.735 2.573-0.746-2.58h-1.266l1.471 3.473 0.002 4.041h1.17zM6.466 2.968c-0.084 0.285-0.126 0.68-0.126 1.186h0v1.396c0 0.462 0.022 0.809 0.069 1.040s0.123 0.428 0.233 0.591c0.108 0.162 0.26 0.285 0.457 0.366s0.434 0.121 0.717 0.121c0.253 0 0.477-0.046 0.673-0.142 0.194-0.094 0.354-0.241 0.478-0.438 0.125-0.199 0.206-0.411 0.244-0.64s0.058-0.588 0.058-1.077v-1.333c0-0.386-0.020-0.673-0.062-0.863-0.041-0.188-0.117-0.371-0.23-0.549-0.11-0.178-0.27-0.321-0.475-0.432s-0.452-0.167-0.738-0.167c-0.341 0-0.621 0.086-0.841 0.259-0.219 0.172-0.372 0.4-0.456 0.684zM10.098 7.131c0.057 0.14 0.146 0.253 0.268 0.338 0.119 0.084 0.272 0.126 0.455 0.126 0.16 0 0.302-0.043 0.426-0.133s0.228-0.222 0.313-0.399l-0.021 0.436h1.24v-5.272h-0.976v4.103c0 0.222-0.183 0.404-0.407 0.404-0.222 0-0.406-0.182-0.406-0.404v-4.103h-1.019v3.556c0 0.453 0.008 0.755 0.022 0.908 0.015 0.152 0.049 0.298 0.107 0.439zM16 16.875v-5.66c0-1.358-1.178-2.469-2.618-2.469h-10.764c-1.44 0-2.618 1.111-2.618 2.469v5.66c0 1.358 1.177 2.469 2.618 2.469h10.764c1.44 0 2.618-1.111 2.618-2.469zM9.581 12.879c-0.267 0-0.485 0.18-0.485 0.399v2.976c0 0.22 0.219 0.399 0.485 0.399 0.269 0 0.487-0.179 0.487-0.399v-2.976c0-0.219-0.219-0.399-0.487-0.399zM13.534 14.19h-1.054l0.005-0.612c0-0.272 0.223-0.494 0.497-0.494h0.068c0.273 0 0.498 0.222 0.498 0.494l-0.012 0.612zM3.336 17.489l-0-5.962 1.334 0.001v-0.884l-3.557-0.005v0.868l1.11 0.003v5.979h1.113zM6.223 12.415h1.112v5.072l-0.893-0.001 0.002-0.657c-0.24 0.515-1.199 0.93-1.7 0.569-0.236-0.168-0.257-0.449-0.277-0.71l-0-0c-0.003-0.037-0.006-0.073-0.009-0.109-0.010-0.107-0.008-0.298-0.006-0.552 0.001-0.135 0.002-0.288 0.002-0.456l-0.004-3.155h1.106l0.005 3.206c0 0.167-0.003 0.307-0.006 0.421-0.004 0.186-0.007 0.304 0.009 0.357 0.158 0.482 0.565 0.22 0.656-0.027 0.018-0.049 0.014-0.152 0.009-0.327-0.003-0.115-0.008-0.262-0.008-0.445v-3.184zM10.895 16.061l-0.002-2.65c-0.001-1.010-0.757-1.615-1.783-0.798l0.005-1.97-1.112 0.002-0.005 6.8 0.914-0.013 0.083-0.424c1.168 1.072 1.903 0.338 1.901-0.947zM13.542 15.714l0.835-0.004c0.38 2.259-2.811 2.63-2.812 0.004v-1.58c0-0.474 0.047-0.847 0.142-1.12s0.256-0.477 0.467-0.629c0.674-0.486 2.008-0.336 2.144 0.614 0.043 0.3 0.057 0.825 0.057 1.35v0.719h-1.91v1.224c0 0.249 0.206 0.452 0.456 0.452h0.163c0.25 0 0.456-0.203 0.456-0.452v-0.465c0-0.018 0.001-0.035 0.001-0.052 0.001-0.022 0.001-0.042 0.001-0.061zM7.311 6.248c0 0.298 0.223 0.542 0.493 0.542s0.492-0.243 0.492-0.542v-2.807c0-0.298-0.221-0.542-0.492-0.542s-0.493 0.243-0.493 0.542v2.807z"></path>
</symbol>
<symbol id="icon-cheveron-left" viewBox="0 0 20 20">
<path d="M7.050 9.293l-0.707 0.707 5.657 5.657 1.414-1.414-4.242-4.243 4.242-4.243-1.414-1.414z"></path>
</symbol>
<symbol id="icon-cheveron-right" viewBox="0 0 20 20">
<path d="M12.95 10.707l0.707-0.707-5.657-5.657-1.414 1.414 4.242 4.243-4.242 4.243 1.414 1.414 4.95-4.95z"></path>
</symbol>
</defs>
</svg>
